<svg width="40" height="40" viewBox="0 0 40 40" fill="none" xmlns="http://www.w3.org/2000/svg">
<g filter="url(#filter0_d_43_2172)">
<circle cx="20" cy="16" r="16" fill="white"/>
</g>
<g clip-path="url(#clip0_43_2172)">
<path d="M12.4614 11.9231H14.1025H27.2307" stroke="#695CCD" stroke-width="2" stroke-linecap="round" stroke-linejoin="round"/>
<path d="M16.5641 11.923V10.282C16.5641 9.84679 16.737 9.42939 17.0447 9.12164C17.3525 8.81388 17.7699 8.64099 18.2051 8.64099H21.4872C21.9224 8.64099 22.3398 8.81388 22.6475 9.12164C22.9553 9.42939 23.1282 9.84679 23.1282 10.282V11.923M25.5897 11.923V23.4102C25.5897 23.8455 25.4168 24.2629 25.1091 24.5706C24.8013 24.8784 24.3839 25.0512 23.9487 25.0512H15.7436C15.3083 25.0512 14.8909 24.8784 14.5832 24.5706C14.2754 24.2629 14.1025 23.8455 14.1025 23.4102V11.923H25.5897Z" stroke="#695CCD" stroke-width="2" stroke-linecap="round" stroke-linejoin="round"/>
</g>
<defs>
<filter id="filter0_d_43_2172" x="0" y="0" width="40" height="40" filterUnits="userSpaceOnUse" color-interpolation-filters="sRGB">
<feFlood flood-opacity="0" result="BackgroundImageFix"/>
<feColorMatrix in="SourceAlpha" type="matrix" values="0 0 0 0 0 0 0 0 0 0 0 0 0 0 0 0 0 0 127 0" result="hardAlpha"/>
<feOffset dy="4"/>
<feGaussianBlur stdDeviation="2"/>
<feComposite in2="hardAlpha" operator="out"/>
<feColorMatrix type="matrix" values="0 0 0 0 0 0 0 0 0 0 0 0 0 0 0 0 0 0 0.25 0"/>
<feBlend mode="normal" in2="BackgroundImageFix" result="effect1_dropShadow_43_2172"/>
<feBlend mode="normal" in="SourceGraphic" in2="effect1_dropShadow_43_2172" result="shape"/>
</filter>
<clipPath id="clip0_43_2172">
<rect width="19.6923" height="19.6923" fill="white" transform="translate(10 7)"/>
</clipPath>
</defs>
</svg>
